<?xml version="1.0" encoding="UTF-8"?>
<svg id="Layer_1" data-name="Layer 1" xmlns="http://www.w3.org/2000/svg" xmlns:xlink="http://www.w3.org/1999/xlink" viewBox="0 0 788.62 677.03">
  <defs>
    <style>
      .cls-1 {
        fill: url(#linear-gradient);
      }

      .cls-2 {
        fill: url(#linear-gradient-3);
      }

      .cls-3 {
        fill: url(#linear-gradient-4);
      }

      .cls-4 {
        fill: url(#linear-gradient-2);
      }
    </style>
    <linearGradient id="linear-gradient" x1="-2035.19" y1="1482.3" x2="-2421.66" y2="1449.43" gradientTransform="translate(1653.49 2515.7) rotate(90)" gradientUnits="userSpaceOnUse">
      <stop offset="0" stop-color="#c1cdd3"/>
      <stop offset="0" stop-color="#bfccd0"/>
      <stop offset=".06" stop-color="#a2caa5"/>
      <stop offset=".12" stop-color="#89c87e"/>
      <stop offset=".18" stop-color="#72c65c"/>
      <stop offset=".25" stop-color="#5fc53f"/>
      <stop offset=".33" stop-color="#50c427"/>
      <stop offset=".42" stop-color="#44c316"/>
      <stop offset=".53" stop-color="#3cc209"/>
      <stop offset=".68" stop-color="#37c202"/>
      <stop offset="1" stop-color="#36c200"/>
    </linearGradient>
    <linearGradient id="linear-gradient-2" x1="-2208.32" y1="1458.8" x2="-2472.87" y2="1000.58" gradientTransform="translate(1653.49 2515.7) rotate(90)" gradientUnits="userSpaceOnUse">
      <stop offset="0" stop-color="#223746"/>
      <stop offset=".18" stop-color="#223849"/>
      <stop offset=".34" stop-color="#243e54"/>
      <stop offset=".5" stop-color="#284867"/>
      <stop offset=".65" stop-color="#2d5681"/>
      <stop offset=".8" stop-color="#3467a3"/>
      <stop offset=".95" stop-color="#3c7dcc"/>
      <stop offset="1" stop-color="#3f85db"/>
    </linearGradient>
    <linearGradient id="linear-gradient-3" x1="-1920.29" y1="1508.71" x2="-2238.82" y2="1130.84" gradientTransform="translate(1653.49 2515.7) rotate(90)" gradientUnits="userSpaceOnUse">
      <stop offset="0" stop-color="#36c200"/>
      <stop offset=".02" stop-color="#3ec20e"/>
      <stop offset=".08" stop-color="#58c33b"/>
      <stop offset=".14" stop-color="#6fc364"/>
      <stop offset=".21" stop-color="#82c486"/>
      <stop offset=".28" stop-color="#92c5a1"/>
      <stop offset=".35" stop-color="#9ec5b7"/>
      <stop offset=".44" stop-color="#a7c5c6"/>
      <stop offset=".54" stop-color="#acc5cf"/>
      <stop offset=".68" stop-color="#aec6d2"/>
    </linearGradient>
    <linearGradient id="linear-gradient-4" x1="-1934.29" y1="1225.02" x2="-2362.37" y2="977.87" gradientTransform="translate(1653.49 2515.7) rotate(90)" gradientUnits="userSpaceOnUse">
      <stop offset="0" stop-color="#3f85db"/>
      <stop offset=".43" stop-color="#3e84d9"/>
      <stop offset=".58" stop-color="#3e81d2"/>
      <stop offset=".7" stop-color="#3e7cc6"/>
      <stop offset=".78" stop-color="#3e76b5"/>
      <stop offset=".86" stop-color="#3e6d9f"/>
      <stop offset=".93" stop-color="#3d6384"/>
      <stop offset=".99" stop-color="#3d5665"/>
      <stop offset="1" stop-color="#3d545e"/>
    </linearGradient>
  </defs>
  <path class="cls-1" d="m274.33,52.25c.71-.68,1.83-.67,2.53.03l56.38,55.85-.02.02,13.1,12.98-162.59,164.24c-.79.83-.77,2.13.03,2.94l75.41,76.12-27.76,27.72c-78.68,78.9-152.26,36.56-152.26,36.56,0,0-89.81-85.59,0-181.63L274.33,52.25Z"/>
  <g>
    <g>
      <path class="cls-4" d="m419.32,204.47l-70.05,69.99h0s-90.1,89.97-90.1,89.97l-75.41-76.12c-.81-.81-.83-2.11-.03-2.94,11.56-12.06,91.8-95.53,162.59-164.24,11.01-10.69,21.8-21.02,32.05-30.67,0,0,83.14-97.17,165.97-14.34.1.18,46.07,75.51-39.5,161.55l-26.88,26.1-58.63-59.31Z"/>
      <path class="cls-2" d="m79.15,428.71s69.56,37.06,152.26-36.56l27.76-27.72,90.1-89.97h0s70.05-69.99,70.05-69.99l58.63,59.31-162.15,157.75,130.34,137.63-43.14,40s-77.18,83.25-166.8-6.37l-157.05-164.09"/>
    </g>
    <path class="cls-3" d="m545.34,78.12c.1.18,41.5,74.23-40.5,159.55l-52.92,51.47-136.11,132.38,198.15,209.24,119.52-115.32c-.01.08.02.16,0,.24l85.72-86.07h0s67.71-75.23.29-178.18c-.22-.27-.45-.55-.67-.82l-173.48-172.49"/>
  </g>
</svg>